<svg width="23" height="22" viewBox="0 0 23 22" fill="none" xmlns="http://www.w3.org/2000/svg">
<g clip-path="url(#clip0_162_2916)">
<path d="M11.6202 22.0008C17.616 22.0008 22.4765 17.1402 22.4765 11.1445C22.4765 5.1487 17.616 0.288177 11.6202 0.288177C5.62444 0.288177 0.763916 5.1487 0.763916 11.1445C0.763916 17.1402 5.62444 22.0008 11.6202 22.0008Z" fill="#F0F0F0"/>
<path d="M11.6205 0.287903C6.95267 0.287903 2.97337 3.23403 1.43945 7.36811H21.8016C20.2676 3.23403 16.2883 0.287903 11.6205 0.287903Z" fill="#D80027"/>
<path d="M11.6205 22.001C16.2883 22.001 20.2676 19.0549 21.8015 14.9208H1.43945C2.97337 19.0549 6.95267 22.001 11.6205 22.001Z" fill="black"/>
<path d="M15.3962 9.96439H12.5641C12.5641 9.44303 12.1415 9.02036 11.6201 9.02036C11.0988 9.02036 10.6761 9.44303 10.6761 9.96439H7.84399C7.84399 10.4858 8.29813 10.9084 8.81949 10.9084H8.78802C8.78802 11.4298 9.21066 11.8524 9.73205 11.8524C9.73205 12.3738 10.1547 12.7965 10.6761 12.7965H12.5641C13.0855 12.7965 13.5082 12.3738 13.5082 11.8524C14.0296 11.8524 14.4522 11.4298 14.4522 10.9084H14.4208C14.9421 10.9084 15.3962 10.4858 15.3962 9.96439Z" fill="#FF9811"/>
</g>
<defs>
<clipPath id="clip0_162_2916">
<rect width="21.7126" height="21.7126" fill="white" transform="translate(0.763916 0.288177)"/>
</clipPath>
</defs>
</svg>
