<svg width="22" height="22" viewBox="0 0 22 22" fill="none" xmlns="http://www.w3.org/2000/svg">
<g clip-path="url(#clip0_162_2914)">
<path d="M11.0997 22.0008C17.0955 22.0008 21.956 17.1402 21.956 11.1445C21.956 5.1487 17.0955 0.288177 11.0997 0.288177C5.10393 0.288177 0.243408 5.1487 0.243408 11.1445C0.243408 17.1402 5.10393 22.0008 11.0997 22.0008Z" fill="#F0F0F0"/>
<path d="M2.72485 4.23542H19.4744C18.8558 3.48629 18.1382 2.82198 17.3423 2.26157H4.85697C4.06103 2.82189 3.34353 3.48625 2.72485 4.23542Z" fill="#F0F0F0"/>
<path d="M0.243408 11.145C0.243408 11.4777 0.259226 11.8067 0.28853 12.1319H21.9109C21.9402 11.8067 21.956 11.4777 21.956 11.145C21.956 10.8122 21.9402 10.4832 21.9109 10.1581H0.28853C0.259226 10.4832 0.243408 10.8122 0.243408 11.145Z" fill="#F0F0F0"/>
<path d="M1.42763 16.0792H20.7725C21.0922 15.4539 21.3529 14.7936 21.5476 14.1054H0.652588C0.847195 14.7936 1.108 15.4539 1.42763 16.0792Z" fill="#F0F0F0"/>
<path d="M4.85697 20.0268H17.3423C18.1382 19.4664 18.8557 18.8021 19.4744 18.0529H2.72485C3.34353 18.802 4.06103 19.4664 4.85697 20.0268Z" fill="#F0F0F0"/>
<path d="M0.652344 8.18418H21.5474C21.3527 7.49599 21.092 6.83562 20.7723 6.21033H1.42742C1.1078 6.83562 0.846994 7.49599 0.652344 8.18418Z" fill="#F0F0F0"/>
<path d="M5.43481 2.26209H17.3416C15.5758 1.01879 13.4228 0.288239 11.099 0.288239C9.68293 0.288239 7.20066 1.01879 5.43481 2.26209Z" fill="#D80027"/>
<path d="M10.6277 6.20963H20.7721C20.4111 5.50342 19.9751 4.84191 19.4745 4.23578H10.6277V6.20963Z" fill="#D80027"/>
<path d="M10.6277 10.157H21.9108C21.8498 9.47923 21.7271 8.8192 21.5472 8.18314H10.6277V10.157Z" fill="#D80027"/>
<path d="M0.651772 14.1061H21.5467C21.7266 13.4701 21.8494 12.81 21.9104 12.1323H0.288086C0.349153 12.81 0.47188 13.47 0.651772 14.1061Z" fill="#D80027"/>
<path d="M2.72467 18.0535H19.4742C19.9748 17.4473 20.4109 16.7858 20.7719 16.0796H1.427C1.78802 16.7858 2.22405 17.4473 2.72467 18.0535Z" fill="#D80027"/>
<path d="M11.0989 22.0012C13.4227 22.0012 15.5757 21.2706 17.3415 20.0273H4.8562C6.62205 21.2706 8.77507 22.0012 11.0989 22.0012Z" fill="#D80027"/>
<path d="M0.652217 8.18327C0.472325 8.81938 0.349641 9.47937 0.288574 10.1571H11.0997V0.287781C6.13044 0.287781 1.94106 3.6266 0.652217 8.18327Z" fill="#0052B4"/>
<path d="M6.70608 3.12033L7.40898 5.28374H9.68396L7.84357 6.62094L8.54643 8.78448L6.70608 7.44737L4.86564 8.78448L5.56867 6.62094L3.72827 5.28374H6.00313L6.70608 3.12033Z" fill="#F0F0F0"/>
</g>
<defs>
<clipPath id="clip0_162_2914">
<rect width="21.7126" height="21.7126" fill="white" transform="translate(0.243408 0.288177)"/>
</clipPath>
</defs>
</svg>
